<svg width="24" height="24" viewBox="0 0 24 24" fill="none" xmlns="http://www.w3.org/2000/svg">
<path d="M5.34 4.46801H7.34V7.02501C8.42127 6.1765 9.7284 5.66509 11.0984 5.55454C12.4684 5.44399 13.8406 5.7392 15.0439 6.40335C16.2473 7.06751 17.2284 8.07122 17.8651 9.28931C18.5018 10.5074 18.7658 11.886 18.6242 13.2531C18.4825 14.6202 17.9416 15.9154 17.0688 16.9771C16.1959 18.0389 15.0299 18.8202 13.7159 19.2236C12.402 19.627 10.9984 19.6346 9.68019 19.2456C8.36195 18.8566 7.18739 18.0881 6.303 17.036L7.922 15.851C8.56389 16.5739 9.40157 17.0951 10.3336 17.3517C11.2656 17.6083 12.2521 17.5892 13.1735 17.2967C14.0949 17.0042 14.9117 16.4509 15.5251 15.7037C16.1386 14.9566 16.5222 14.0476 16.6297 13.0869C16.7372 12.1262 16.5638 11.1549 16.1307 10.2907C15.6975 9.42643 15.0231 8.70629 14.1891 8.21744C13.3551 7.72859 12.3973 7.49199 11.4316 7.53628C10.4659 7.58058 9.53375 7.90387 8.748 8.46701H11.339V10.467H5.339V4.46701L5.34 4.46801Z" fill="black"/>
</svg>
